<?xml version="1.0" encoding="UTF-8" standalone="no"?>
<!-- Created with Inkscape (http://www.inkscape.org/) -->

<svg
   xmlns:dc="http://purl.org/dc/elements/1.1/"
   xmlns:cc="http://creativecommons.org/ns#"
   xmlns:rdf="http://www.w3.org/1999/02/22-rdf-syntax-ns#"
   xmlns:svg="http://www.w3.org/2000/svg"
   xmlns="http://www.w3.org/2000/svg"
   xmlns:sodipodi="http://sodipodi.sourceforge.net/DTD/sodipodi-0.dtd"
   xmlns:inkscape="http://www.inkscape.org/namespaces/inkscape"
   width="744.09448819"
   height="1052.3622047"
   id="svg2"
   version="1.1"
   inkscape:version="0.48.4 r9939"
   sodipodi:docname="logo.png">
  <defs
     id="defs4" />
  <sodipodi:namedview
     id="base"
     pagecolor="#ffffff"
     bordercolor="#666666"
     borderopacity="1.0"
     inkscape:pageopacity="0.0"
     inkscape:pageshadow="2"
     inkscape:zoom="0.35"
     inkscape:cx="912.73237"
     inkscape:cy="520"
     inkscape:document-units="px"
     inkscape:current-layer="layer1"
     showgrid="false"
     inkscape:window-width="1301"
     inkscape:window-height="744"
     inkscape:window-x="65"
     inkscape:window-y="24"
     inkscape:window-maximized="1" />
  <metadata
     id="metadata7">
    <rdf:RDF>
      <cc:Work
         rdf:about="">
        <dc:format>image/svg+xml</dc:format>
        <dc:type
           rdf:resource="http://purl.org/dc/dcmitype/StillImage" />
        <dc:title></dc:title>
      </cc:Work>
    </rdf:RDF>
  </metadata>
  <g
     inkscape:label="Layer 1"
     inkscape:groupmode="layer"
     id="layer1">
    <g
       transform="matrix(1.0327233,0,0,0.96831359,4.2857142e-7,34.285714)"
       style="font-size:261.97409058px;font-style:normal;font-variant:normal;font-weight:normal;font-stretch:normal;line-height:125%;letter-spacing:0px;word-spacing:0px;fill:#ffb219;fill-opacity:1;stroke:none;font-family:Purisa;-inkscape-font-specification:Purisa"
       id="text3761"
       inkscape:export-filename="/var/www/html/PhpProject1/images/logo.png"
       inkscape:export-xdpi="90"
       inkscape:export-ydpi="90">
      <path
         d="m 67.726924,405.61484 c -6.7e-5,8.73249 -0.698664,14.49591 -2.095793,17.29029 -1.222609,2.7944 -4.104321,4.19159 -8.645145,4.19159 -6.811375,0 -11.177606,-1.74649 -13.098704,-5.23948 -1.047939,-2.96903 -1.571886,-8.73245 -1.571845,-17.29029 -4.1e-5,-8.03384 -1.571884,-23.57762 -4.715533,-46.63139 -2.969074,-23.05362 -4.453592,-46.63127 -4.45356,-70.733 l 0,-43.4877 21.74385,-7.59725 c 14.495831,-4.54069 26.197328,-6.81113 35.104528,-6.81133 5.763335,2e-4 11.614088,-1.04769 17.552268,-3.14369 5.93796,-2.09558 13.97183,-3.14348 24.10161,-3.14369 15.54365,2.1e-4 23.31554,2.7946 23.3157,8.38317 -1.6e-4,1.92134 -0.17481,3.58051 -0.52395,4.97751 -0.1748,1.22274 -0.78608,2.35796 -1.83382,3.40567 -0.8734,1.04808 -1.92129,2.00865 -3.14369,2.88171 -1.04804,0.69878 -2.70721,1.39738 -4.97751,2.09579 -2.27058,0.69879 -4.54102,1.31006 -6.81132,1.83382 -2.27058,0.52413 -5.41427,1.1354 -9.43107,1.83382 -3.84241,0.69878 -7.68469,1.39738 -11.52686,2.09579 -3.66775,0.52413 -8.4706,1.39738 -14.40858,2.61974 -5.938171,1.04808 -11.701595,2.09597 -17.290286,3.14369 l -26.197409,4.97751 0,14.93252 c -5.8e-5,14.32139 0.611214,24.88767 1.833819,31.69887 l 1.571844,8.38317 14.932523,-1.57184 c 11.701422,-1.39708 23.315599,-2.09568 34.842559,-2.0958 16.06761,1.2e-4 24.10148,2.44521 24.10161,7.33528 -1.3e-4,2.79449 -2.3579,5.50156 -7.0733,8.12119 -4.54101,2.44519 -10.21711,4.54099 -17.02831,6.28738 -6.63679,1.57194 -12.050912,2.79449 -16.242398,3.66764 -4.191677,0.87334 -7.422687,1.48461 -9.693042,1.83382 l -21.481875,3.40566 2.357767,38.51019 c 0.523881,13.09874 0.785855,21.04528 0.785922,23.83964"
         style="font-weight:bold;-inkscape-font-specification:Purisa Bold"
         id="path3791"
         inkscape:connector-curvature="0" />
      <path
         d="m 197.48187,218.30337 c -2e-5,-12.74918 0.52392,-22.52954 1.57185,-29.3411 1.04787,-6.81108 2.27041,-11.08998 3.66763,-12.83673 1.57182,-1.92089 3.66761,-2.88146 6.28738,-2.88171 4.19155,2.5e-4 6.72396,1.74675 7.59725,5.23948 0.8732,3.66788 2.70702,25.93566 5.50146,66.80339 2.96898,40.8681 5.67605,80.6008 8.12119,119.19821 2.61968,38.59755 3.92955,58.33291 3.92962,59.20615 -7e-5,6.11273 -3.3184,9.16909 -9.95502,9.16909 -5.93813,0 -9.78041,-3.58031 -11.52686,-10.74094 -1.57188,-7.33526 -3.58035,-28.64246 -6.0254,-63.92168 -2.79443,-37.20021 -5.32684,-69.59764 -7.59725,-97.19238 -1.04793,-14.67037 -1.57187,-28.90428 -1.57185,-42.70178"
         style="font-weight:bold;-inkscape-font-specification:Purisa Bold"
         id="path3793"
         inkscape:connector-curvature="0" />
      <path
         d="m 288.18221,280.39123 c 2.969,-2.09564 5.85071,-3.14354 8.64514,-3.14369 2.79435,1.5e-4 5.15211,1.13537 7.0733,3.40566 2.79434,5.23963 5.06478,20.43411 6.81133,45.5835 1.92109,25.14959 2.88166,48.63991 2.88171,70.47103 -5e-5,15.71846 -0.524,24.62557 -1.57184,26.72135 -3.49304,2.7944 -7.248,4.19159 -11.26489,4.19159 -6.11276,0 -9.86772,-1.83382 -11.26488,-5.50146 -0.87328,-2.79438 -2.27047,-20.9579 -4.19159,-54.49061 -1.74652,-33.70724 -2.61976,-56.23698 -2.61974,-67.58931 -2e-5,-10.65348 1.83379,-17.20282 5.50146,-19.64806 m -2.88172,-61.30194 c 0.34927,-3.31812 1.74647,-6.02519 4.19159,-8.12119 2.6197,-2.09558 5.15212,-3.14347 7.59725,-3.14369 2.44505,2.2e-4 5.58873,1.13544 9.43106,3.40566 3.84224,2.27066 5.76338,5.32702 5.76343,9.16909 -5e-5,4.19179 -1.04795,7.94675 -3.14369,11.26489 -2.09584,3.31853 -4.89023,4.9777 -8.38317,4.97751 -3.66767,1.9e-4 -7.16066,-1.65898 -10.47896,-4.97751 -3.31837,-3.49279 -4.97754,-7.68437 -4.97751,-12.57476"
         style="font-weight:bold;-inkscape-font-specification:Purisa Bold"
         id="path3795"
         inkscape:connector-curvature="0" />
      <path
         d="m 352.0343,319.94932 c -2e-5,-3.31823 2.44507,-7.07319 7.33527,-11.26489 4.89016,-4.19146 7.33525,-7.42247 7.33528,-9.69304 -3e-5,-3.84215 1.22251,-8.38303 3.66764,-13.62265 2.44505,-5.23933 6.28733,-7.85907 11.52686,-7.85923 3.49293,1.6e-4 6.28732,1.39735 8.38317,4.19159 2.27038,2.61989 3.84223,3.92976 4.71553,3.92961 1.57178,1.5e-4 8.3831,-1.30972 20.43398,-3.92961 12.05072,-2.79424 22.87897,-4.19143 32.48479,-4.19159 8.03375,1.6e-4 16.85353,0.96073 26.45938,2.88172 20.25917,4.36638 30.38883,16.32985 30.38899,35.89045 -1.6e-4,14.8453 -5.50161,33.35811 -16.50436,55.53851 -7.51007,15.36919 -17.11578,27.24533 -28.81715,35.62847 -11.70162,8.38319 -24.27637,12.57477 -37.72427,12.57476 -3.49307,1e-5 -6.37478,-0.17464 -8.64515,-0.52395 l -7.85922,-1.04789 2.09579,8.90711 c 6.81125,28.64248 10.21691,47.24262 10.21699,55.80049 -8e-5,7.50986 -3.92969,11.26482 -11.78883,11.26488 -5.0649,-6e-5 -8.81986,-1.48458 -11.26489,-4.45356 -3.14374,-4.01699 -6.81138,-16.24244 -11.00291,-36.67637 -4.01698,-20.25933 -7.50996,-46.45672 -10.47896,-78.59223 -1.04794,-11.17749 -1.92118,-19.82263 -2.61974,-25.93543 -0.52399,-6.28729 -1.13526,-10.9155 -1.83382,-13.88463 -0.69863,-3.14359 -1.3099,-5.06473 -1.83382,-5.76343 -0.52398,-0.6985 -1.3099,-1.04779 -2.35777,-1.0479 -8.20854,1.1e-4 -12.3128,-2.70696 -12.31278,-8.12119 m 120.24611,-15.1945 c -2.09593,-1.04777 -7.24808,-1.57172 -15.45647,-1.57184 -16.9411,1.2e-4 -32.04826,1.92126 -45.32152,5.76343 l -16.50437,4.9775 0.52395,14.40858 c 0.52389,13.27344 1.57178,27.50735 3.14369,42.70177 1.74643,15.19455 3.31827,22.79179 4.71553,22.79175 3.49292,4e-5 7.16055,1.13526 11.00291,3.40566 3.84221,2.09583 6.6366,3.14372 8.38317,3.14369 6.63659,3e-5 14.4958,-4.27887 23.57767,-12.83673 9.2563,-8.55777 17.20284,-18.9494 23.83964,-31.17491 6.63654,-12.40003 9.95488,-23.3156 9.95502,-32.74677 -1.4e-4,-3.49287 -0.61142,-6.72388 -1.83382,-9.69304 -1.22269,-3.14357 -2.44523,-5.32668 -3.66764,-6.54935 -1.04803,-1.39707 -1.83395,-2.27032 -2.35776,-2.61974"
         style="font-weight:bold;-inkscape-font-specification:Purisa Bold"
         id="path3797"
         inkscape:connector-curvature="0" />
      <path
         d="m 646.50137,337.50158 c -0.34942,9e-5 -2.00859,0.96066 -4.97751,2.88172 -2.96915,1.74658 -7.42271,2.61982 -13.36067,2.61974 -2.96915,8e-5 -6.02551,-0.26189 -9.1691,-0.78593 -3.14378,-0.52386 -6.37479,-1.30978 -9.69304,-2.35776 -3.14377,-1.22246 -5.76351,-2.96895 -7.85922,-5.23948 -2.09587,-2.445 -3.14377,-5.23939 -3.14369,-8.38317 0.34922,-4.01683 1.83374,-6.98587 4.45356,-8.90712 2.61966,-1.92103 5.76334,-3.40555 9.43107,-4.45356 3.66754,-1.04778 6.0253,-2.09568 7.0733,-3.14369 2.44499,-2.44497 6.72389,-3.66752 12.83673,-3.66764 6.98586,1.2e-4 15.63099,1.04802 25.93543,3.14369 10.30417,1.92126 17.29014,4.36635 20.95793,7.33527 6.11256,5.06494 10.47879,16.41714 13.0987,34.05664 2.61957,17.465 3.92944,36.32711 3.92962,56.5864 -1.8e-4,7.33529 -0.52413,12.92406 -1.57185,16.76634 -1.04807,3.66764 -3.49316,6.02541 -7.33527,7.0733 -1.57201,0.52395 -2.79456,0.78592 -3.66764,0.78592 -3.3185,0 -6.02556,-0.78592 -8.1212,-2.35776 -1.92129,-1.74649 -3.40581,-4.62821 -4.45356,-8.64515 -0.87339,-4.19157 -1.39734,-8.12118 -1.57184,-11.78883 -0.1748,-3.84226 -0.26212,-9.34371 -0.26198,-16.50437 l 0,-17.55226 -2.09579,3.40566 c -10.8284,16.41708 -23.22849,29.34112 -37.20032,38.77216 -13.97205,9.43108 -27.68201,14.1466 -41.12993,14.14661 -7.33534,-1e-5 -14.6706,-1.83382 -22.00583,-5.50146 -5.23952,-2.79438 -9.0818,-6.02539 -11.52686,-9.69304 -2.44512,-3.66762 -4.89021,-9.95499 -7.33527,-18.86214 -2.61976,-9.25637 -3.92963,-17.90151 -3.92961,-25.93543 -2e-5,-5.41407 0.52392,-12.48736 1.57184,-21.2199 1.74647,-14.32116 4.27888,-25.58603 7.59725,-33.79466 3.31831,-8.38305 10.0423,-19.5606 20.17201,-33.53268 7.16056,-9.78021 14.93245,-18.16338 23.31569,-25.14952 8.38309,-7.16044 15.54371,-12.13794 21.48188,-14.93252 6.11262,-2.7942 11.61407,-5.32661 16.50436,-7.59725 4.89007,-2.27024 7.85911,-4.10406 8.90712,-5.50145 3.14357,-4.19139 8.73234,-6.28718 16.76634,-6.28738 7.33513,2e-4 14.3211,1.83402 20.95793,5.50145 6.81116,3.49319 10.21682,7.59745 10.21699,12.31279 -1.7e-4,3.49317 -1.31004,7.59743 -3.92961,12.31278 -2.44525,4.7157 -5.50162,7.07347 -9.16909,7.0733 -2.6199,1.7e-4 -4.54104,-1.04773 -5.76343,-3.14369 -1.2227,-2.09562 -2.09594,-4.10408 -2.61974,-6.0254 -0.5241,-2.09562 -1.2227,-3.14351 -2.0958,-3.14369 -3.31848,1.8e-4 -7.85936,0.96075 -13.62265,2.88171 -5.58891,1.92132 -12.48755,5.15233 -20.69595,9.69304 -8.03398,4.3664 -16.76644,11.52702 -26.19741,21.48188 -9.2565,9.7805 -17.72698,21.482 -25.41149,35.10453 -5.58883,9.78046 -8.99449,17.11573 -10.21699,22.00582 -1.04794,4.89027 -1.57189,13.09878 -1.57184,24.62556 -5e-5,16.59175 1.22249,27.59465 3.66763,33.00874 2.61969,5.23951 7.68452,7.85925 15.1945,7.85922 17.81416,3e-5 32.31004,-6.72397 43.4877,-20.172 6.11261,-7.33522 11.09012,-14.84514 14.93252,-22.52977 4.01681,-7.85915 6.02528,-13.7099 6.02541,-17.55227 -1.3e-4,-1.74641 -0.78605,-3.31825 -2.35777,-4.71553 -1.39732,-1.57176 -2.88184,-2.35768 -4.45356,-2.35777"
         style="fill:#ffffff;-inkscape-font-specification:Purisa Bold"
         id="path3799"
         inkscape:connector-curvature="0" />
    </g>
  </g>
</svg>
